<svg xmlns="http://www.w3.org/2000/svg" viewBox="0 0 512 512" fill="none">
  <rect width="512" height="512" fill="#FFFFFF"/>
  <g transform="translate(256 278)">
    <circle r="132" fill="#F8F9FB" stroke="#E8EAEF" stroke-width="2"/>
    <path
      d="M -92 78 A 132 132 0 1 1 92 78"
      stroke="#0F1419"
      stroke-width="26"
      stroke-linecap="round"
      fill="none"
    />
    <path
      d="M 48 -108 A 132 132 0 0 1 92 78"
      stroke="#E31B23"
      stroke-width="26"
      stroke-linecap="round"
      fill="none"
    />
    <g stroke="#0F1419" stroke-width="3" stroke-linecap="round">
      <line x1="-78" y1="62" x2="-68" y2="54"/>
      <line x1="-58" y1="28" x2="-48" y2="22"/>
      <line x1="-32" y1="0" x2="-22" y2="-4"/>
      <line x1="0" y1="-14" x2="0" y2="-24"/>
      <line x1="32" y1="0" x2="42" y2="-4"/>
      <line x1="58" y1="28" x2="68" y2="22"/>
      <line x1="78" y1="62" x2="88" y2="54"/>
    </g>
    <g stroke="#E31B23" stroke-width="3" stroke-linecap="round">
      <line x1="62" y1="48" x2="72" y2="40"/>
      <line x1="82" y1="72" x2="92" y2="66"/>
    </g>
    <line
      x1="0"
      y1="0"
      x2="56"
      y2="-102"
      stroke="#E31B23"
      stroke-width="12"
      stroke-linecap="round"
    />
    <circle r="20" fill="#0F1419"/>
    <circle r="10" fill="#E31B23"/>
  </g>
</svg>
